<svg id="visual" viewBox="0 0 900 600" width="900" height="600" xmlns="http://www.w3.org/2000/svg" xmlns:xlink="http://www.w3.org/1999/xlink" version="1.1"><rect x="0" y="0" width="900" height="600" fill="#FFFFFF"></rect><defs><linearGradient id="grad1_0" x1="33.3%" y1="100%" x2="100%" y2="0%"><stop offset="20%" stop-color="#fbae3c" stop-opacity="1"></stop><stop offset="80%" stop-color="#fbae3c" stop-opacity="1"></stop></linearGradient></defs><defs><linearGradient id="grad1_1" x1="33.3%" y1="100%" x2="100%" y2="0%"><stop offset="20%" stop-color="#fbae3c" stop-opacity="1"></stop><stop offset="80%" stop-color="#ffc880" stop-opacity="1"></stop></linearGradient></defs><defs><linearGradient id="grad1_2" x1="33.3%" y1="100%" x2="100%" y2="0%"><stop offset="20%" stop-color="#ffe3bf" stop-opacity="1"></stop><stop offset="80%" stop-color="#ffc880" stop-opacity="1"></stop></linearGradient></defs><defs><linearGradient id="grad1_3" x1="33.3%" y1="100%" x2="100%" y2="0%"><stop offset="20%" stop-color="#ffe3bf" stop-opacity="1"></stop><stop offset="80%" stop-color="#ffffff" stop-opacity="1"></stop></linearGradient></defs><defs><linearGradient id="grad2_0" x1="0%" y1="100%" x2="66.7%" y2="0%"><stop offset="20%" stop-color="#fbae3c" stop-opacity="1"></stop><stop offset="80%" stop-color="#fbae3c" stop-opacity="1"></stop></linearGradient></defs><defs><linearGradient id="grad2_1" x1="0%" y1="100%" x2="66.7%" y2="0%"><stop offset="20%" stop-color="#ffc880" stop-opacity="1"></stop><stop offset="80%" stop-color="#fbae3c" stop-opacity="1"></stop></linearGradient></defs><defs><linearGradient id="grad2_2" x1="0%" y1="100%" x2="66.7%" y2="0%"><stop offset="20%" stop-color="#ffc880" stop-opacity="1"></stop><stop offset="80%" stop-color="#ffe3bf" stop-opacity="1"></stop></linearGradient></defs><defs><linearGradient id="grad2_3" x1="0%" y1="100%" x2="66.7%" y2="0%"><stop offset="20%" stop-color="#ffffff" stop-opacity="1"></stop><stop offset="80%" stop-color="#ffe3bf" stop-opacity="1"></stop></linearGradient></defs><g transform="translate(900, 600)"><path d="M-324.5 0C-320.9 -33.3 -317.3 -66.6 -308.6 -100.3C-299.9 -134 -286.2 -168 -261.3 -189.9C-236.5 -211.7 -200.6 -221.3 -171.6 -236.2C-142.7 -251.2 -120.8 -271.6 -93.3 -287.2C-65.9 -302.8 -32.9 -313.7 0 -324.5L0 0Z" fill="#fff1df"></path><path d="M-243.4 0C-240.7 -25 -238 -49.9 -231.5 -75.2C-224.9 -100.5 -214.6 -126 -196 -142.4C-177.4 -158.8 -150.4 -165.9 -128.7 -177.2C-107 -188.4 -90.6 -203.7 -70 -215.4C-49.4 -227.1 -24.7 -235.2 0 -243.4L0 0Z" fill="#ffd69f"></path><path d="M-162.2 0C-160.5 -16.6 -158.7 -33.3 -154.3 -50.1C-150 -67 -143.1 -84 -130.7 -94.9C-118.2 -105.8 -100.3 -110.6 -85.8 -118.1C-71.4 -125.6 -60.4 -135.8 -46.7 -143.6C-32.9 -151.4 -16.5 -156.8 0 -162.2L0 0Z" fill="#ffbb5f"></path><path d="M-81.1 0C-80.2 -8.3 -79.3 -16.6 -77.2 -25.1C-75 -33.5 -71.5 -42 -65.3 -47.5C-59.1 -52.9 -50.1 -55.3 -42.9 -59.1C-35.7 -62.8 -30.2 -67.9 -23.3 -71.8C-16.5 -75.7 -8.2 -78.4 0 -81.1L0 0Z" fill="#fbae3c"></path></g><g transform="translate(0, 0)"><path d="M324.5 0C324.5 36.4 324.5 72.9 308.6 100.3C292.7 127.7 260.9 146.1 241.1 175.2C221.3 204.2 213.5 243.8 189.3 260.5C165.1 277.2 124.5 270.9 90.2 277.7C56 284.5 28 304.5 0 324.5L0 0Z" fill="#fff1df"></path><path d="M243.4 0C243.4 27.3 243.4 54.6 231.5 75.2C219.5 95.8 195.7 109.6 180.8 131.4C166 153.1 160.1 182.9 142 195.4C123.8 207.9 93.4 203.2 67.7 208.3C42 213.4 21 228.4 0 243.4L0 0Z" fill="#ffd69f"></path><path d="M162.2 0C162.3 18.2 162.3 36.4 154.3 50.1C146.4 63.9 130.5 73.1 120.5 87.6C110.6 102.1 106.7 121.9 94.6 130.3C82.5 138.6 62.3 135.4 45.1 138.9C28 142.3 14 152.3 0 162.2L0 0Z" fill="#ffbb5f"></path><path d="M81.1 0C81.1 9.1 81.1 18.2 77.2 25.1C73.2 31.9 65.2 36.5 60.3 43.8C55.3 51 53.4 61 47.3 65.1C41.3 69.3 31.1 67.7 22.6 69.4C14 71.1 7 76.1 0 81.1L0 0Z" fill="#fbae3c"></path></g></svg>