<svg id="visual" viewBox="0 0 900 600" width="900" height="600" xmlns="http://www.w3.org/2000/svg" xmlns:xlink="http://www.w3.org/1999/xlink" version="1.1"><rect x="0" y="0" width="900" height="600" fill="#FFFFFF"></rect><path d="M0 128L75 128L75 236L150 236L150 347L225 347L225 210L300 210L300 350L375 350L375 188L450 188L450 205L525 205L525 228L600 228L600 324L675 324L675 361L750 361L750 297L825 297L825 220L900 220L900 217L900 601L900 601L825 601L825 601L750 601L750 601L675 601L675 601L600 601L600 601L525 601L525 601L450 601L450 601L375 601L375 601L300 601L300 601L225 601L225 601L150 601L150 601L75 601L75 601L0 601Z" fill="#f7770f"></path><path d="M0 284L75 284L75 242L150 242L150 346L225 346L225 311L300 311L300 287L375 287L375 197L450 197L450 166L525 166L525 389L600 389L600 172L675 172L675 182L750 182L750 388L825 388L825 176L900 176L900 327L900 601L900 601L825 601L825 601L750 601L750 601L675 601L675 601L600 601L600 601L525 601L525 601L450 601L450 601L375 601L375 601L300 601L300 601L225 601L225 601L150 601L150 601L75 601L75 601L0 601Z" fill="#fa842d"></path><path d="M0 323L75 323L75 363L150 363L150 273L225 273L225 325L300 325L300 392L375 392L375 241L450 241L450 289L525 289L525 362L600 362L600 264L675 264L675 211L750 211L750 275L825 275L825 340L900 340L900 384L900 601L900 601L825 601L825 601L750 601L750 601L675 601L675 601L600 601L600 601L525 601L525 601L450 601L450 601L375 601L375 601L300 601L300 601L225 601L225 601L150 601L150 601L75 601L75 601L0 601Z" fill="#fc9144"></path><path d="M0 316L75 316L75 364L150 364L150 401L225 401L225 237L300 237L300 318L375 318L375 339L450 339L450 373L525 373L525 245L600 245L600 272L675 272L675 341L750 341L750 371L825 371L825 284L900 284L900 395L900 601L900 601L825 601L825 601L750 601L750 601L675 601L675 601L600 601L600 601L525 601L525 601L450 601L450 601L375 601L375 601L300 601L300 601L225 601L225 601L150 601L150 601L75 601L75 601L0 601Z" fill="#fd9d59"></path><path d="M0 435L75 435L75 337L150 337L150 423L225 423L225 420L300 420L300 382L375 382L375 398L450 398L450 305L525 305L525 416L600 416L600 399L675 399L675 342L750 342L750 343L825 343L825 427L900 427L900 332L900 601L900 601L825 601L825 601L750 601L750 601L675 601L675 601L600 601L600 601L525 601L525 601L450 601L450 601L375 601L375 601L300 601L300 601L225 601L225 601L150 601L150 601L75 601L75 601L0 601Z" fill="#ffa96d"></path><path d="M0 370L75 370L75 442L150 442L150 407L225 407L225 399L300 399L300 363L375 363L375 313L450 313L450 434L525 434L525 401L600 401L600 314L675 314L675 461L750 461L750 427L825 427L825 449L900 449L900 361L900 601L900 601L825 601L825 601L750 601L750 601L675 601L675 601L600 601L600 601L525 601L525 601L450 601L450 601L375 601L375 601L300 601L300 601L225 601L225 601L150 601L150 601L75 601L75 601L0 601Z" fill="#ffb582"></path><path d="M0 422L75 422L75 400L150 400L150 366L225 366L225 477L300 477L300 455L375 455L375 349L450 349L450 451L525 451L525 449L600 449L600 459L675 459L675 400L750 400L750 469L825 469L825 440L900 440L900 400L900 601L900 601L825 601L825 601L750 601L750 601L675 601L675 601L600 601L600 601L525 601L525 601L450 601L450 601L375 601L375 601L300 601L300 601L225 601L225 601L150 601L150 601L75 601L75 601L0 601Z" fill="#ffc196"></path><path d="M0 425L75 425L75 494L150 494L150 501L225 501L225 473L300 473L300 455L375 455L375 391L450 391L450 444L525 444L525 463L600 463L600 459L675 459L675 386L750 386L750 464L825 464L825 408L900 408L900 415L900 601L900 601L825 601L825 601L750 601L750 601L675 601L675 601L600 601L600 601L525 601L525 601L450 601L450 601L375 601L375 601L300 601L300 601L225 601L225 601L150 601L150 601L75 601L75 601L0 601Z" fill="#ffcdab"></path><path d="M0 499L75 499L75 461L150 461L150 513L225 513L225 450L300 450L300 438L375 438L375 442L450 442L450 481L525 481L525 459L600 459L600 466L675 466L675 432L750 432L750 443L825 443L825 480L900 480L900 460L900 601L900 601L825 601L825 601L750 601L750 601L675 601L675 601L600 601L600 601L525 601L525 601L450 601L450 601L375 601L375 601L300 601L300 601L225 601L225 601L150 601L150 601L75 601L75 601L0 601Z" fill="#ffdabf"></path><path d="M0 502L75 502L75 505L150 505L150 486L225 486L225 537L300 537L300 458L375 458L375 463L450 463L450 460L525 460L525 513L600 513L600 469L675 469L675 521L750 521L750 512L825 512L825 460L900 460L900 519L900 601L900 601L825 601L825 601L750 601L750 601L675 601L675 601L600 601L600 601L525 601L525 601L450 601L450 601L375 601L375 601L300 601L300 601L225 601L225 601L150 601L150 601L75 601L75 601L0 601Z" fill="#ffe6d4"></path><path d="M0 499L75 499L75 502L150 502L150 538L225 538L225 545L300 545L300 530L375 530L375 500L450 500L450 510L525 510L525 536L600 536L600 517L675 517L675 495L750 495L750 523L825 523L825 502L900 502L900 497L900 601L900 601L825 601L825 601L750 601L750 601L675 601L675 601L600 601L600 601L525 601L525 601L450 601L450 601L375 601L375 601L300 601L300 601L225 601L225 601L150 601L150 601L75 601L75 601L0 601Z" fill="#fff2ea"></path><path d="M0 553L75 553L75 538L150 538L150 545L225 545L225 536L300 536L300 573L375 573L375 570L450 570L450 565L525 565L525 567L600 567L600 548L675 548L675 536L750 536L750 538L825 538L825 548L900 548L900 531L900 601L900 601L825 601L825 601L750 601L750 601L675 601L675 601L600 601L600 601L525 601L525 601L450 601L450 601L375 601L375 601L300 601L300 601L225 601L225 601L150 601L150 601L75 601L75 601L0 601Z" fill="#ffffff"></path></svg>